# xmcd
#
# Track frame offsets:
#	182
#	10350
#	23115
#	35297
#	45250
#	56967
#	71482
#	88877
#	101525
#	111792
#	119472
#	131640
#	144320
#	162435
#	172622
#	190272
#	201520
#	214975
#	228375
#	243882
#
# Disc length: 3388 seconds
# Revision: 0
# Processed by: cddbd v1.5.2PL0 Copyright (c) Steve Scherf et al.
# Submitted via: dBpowerAMP V12.0
#
DISCID=170d3a14
DTITLE=Various Artist - Les Étoiles du Country Vol 1
DYEAR=1900
DGENRE=Country
TTITLE0=Denis Rolland - Je joue au cowboy
TTITLE1=Wagoneers - Unis devant Dieu, désuni par le juge
TTITLE2=Régis Gagné - Comment peut-on m'oublier?
TTITLE3=Michel Melancon - Done-moi un whiskey
TTITLE4=Geston Richard - Du mariage au divorce
TTITLE5=Chantal and Sylvain Lavoie - Nous vivons comme des étranger
TTITLE6=Luc Daraiche - Un jour à la fois
TTITLE7=André and Diane - Marqué pour la vie
TTITLE8=Ginette and Raymond Lavoie - J'ai besoin de toi
TTITLE9=Larry Robichaud - L'automne est dans mon coeur
TTITLE10=Ovila Landry - Le train bleu de la Gaspésie
TTITLE11=Léo Benoit - Tu sais queje t'aime
TTITLE12=Paul Brunelle - Ma p'tite Mado
TTITLE13=Etienne and Monique Bessette - Prend ton temps
TTITLE14=Gisèle La Madeleine - Souvenir de maman
TTITLE15=Willie Lamothe - Chérie tu te demandes si je t'aime
TTITLE16=Marcel Martel - Mon coeur est comme un train
TTITLE17=Levis Bouliane - Au pied du quai
TTITLE18=Pierre St-Georges - Achy breaky heart
TTITLE19=Jeanette - Les Cloches de ma vallée
EXTD=
EXTT0=
EXTT1=
EXTT2=
EXTT3=
EXTT4=
EXTT5=
EXTT6=
EXTT7=
EXTT8=
EXTT9=
EXTT10=
EXTT11=
EXTT12=
EXTT13=
EXTT14=
EXTT15=
EXTT16=
EXTT17=
EXTT18=
EXTT19=
PLAYORDER=
